#!OML:ASF E:\VariousWalksJay\Project 1\Capture day 1\Session 1\Actor2.ASF
:FULLY-SPECIFIED
:DEGREES
1200
root 4.9999 17.8333 -26.1258 181.758 1.48445 -174.26
lowerback -5.35879 0.659072 5.40401
upperback 3.6918 0.593933 -1.54047
thorax 6.96743 0.62351 -4.59272
lowerneck -2.94013 -9.14157 -3.70933
upperneck 22.3028 -13.6522 19.3568
head 9.11133 -3.95571 6.22897
rclavicle 9.54166e-015 2.06736e-014
rhumerus -31.1058 38.754 -95.3115
rradius 46.4454
rwrist -0.275152
rhand -5.24469 -6.71486
rfingers 7.12502
rthumb 20.5583 -35.6463
lclavicle 9.54166e-015 2.06736e-014
lhumerus -23.0756 -21.8348 80.0529
lradius 33.6682
lwrist 12.9419
lhand -11.7936 -8.80169
lfingers 7.12502
lthumb 14.2559 20.689
rfemur -9.70793 11.0601 24.0427
rtibia 27.8244
rfoot -17.476 -3.54948
rtoes -4.88855
lfemur -10.1272 0.556579 -7.64328
ltibia 23.7556
lfoot -14.4669 -0.398122
ltoes -9.46001
1201
root 4.97274 17.8442 -26.1603 182.027 1.64192 -174.343
lowerback -5.80399 0.659204 5.44541
upperback 3.48778 0.561421 -1.62746
thorax 7.00543 0.602322 -4.71253
lowerneck -2.77971 -9.11041 -3.78079
upperneck 22.2318 -13.5811 19.2085
head 9.03651 -3.96724 6.19402
rclavicle 1.11319e-014 3.18055e-014
rhumerus -31.6614 38.9671 -95.7001
rradius 46.5908
rwrist -0.231408
rhand -4.82166 -6.69155
rfingers 7.12502
rthumb 20.9648 -35.5785
lclavicle 1.11319e-014 3.18055e-014
lhumerus -23.1994 -21.8935 80.2366
lradius 33.7287
lwrist 12.9199
lhand -11.7571 -8.83763
lfingers 7.12502
lthumb 14.2911 20.6506
rfemur -9.75741 10.9774 23.7867
rtibia 27.5509
rfoot -17.4292 -3.30715
rtoes -5.10765
lfemur -10.0466 0.716976 -7.84866
ltibia 23.4103
lfoot -14.4639 -0.302461
ltoes -9.32736
1202
root 4.94601 17.8543 -26.1932 182.285 1.79189 -174.398
lowerback -6.2101 0.649385 5.50319
upperback 3.30345 0.516677 -1.6885
thorax 7.03982 0.576589 -4.81604
lowerneck -2.72108 -9.07205 -3.85591
upperneck 22.1452 -13.5113 19.037
head 8.97478 -3.98241 6.14611
rclavicle 4.96962e-016 -5.56597e-015
rhumerus -32.1487 39.2909 -96.0519
rradius 46.7113
rwrist -0.204918
rhand -4.33349 -6.65041
rfingers 7.12502
rthumb 21.4337 -35.4848
lclavicle 4.96962e-016 -5.56597e-015
lhumerus -23.2676 -21.8725 80.4084
lradius 33.784
lwrist 12.8941
lhand -11.7587 -8.88484
lfingers 7.12502
lthumb 14.2895 20.6035
rfemur -9.80306 10.9147 23.5665
rtibia 27.2787
rfoot -17.3677 -3.09964
rtoes -5.35067
lfemur -9.98739 0.82176 -8.02685
ltibia 23.1104
lfoot -14.4783 -0.163516
ltoes -9.2036
1203
root 4.92067 17.8633 -26.2232 182.515 1.9339 -174.43
lowerback -6.5466 0.632677 5.56434
upperback 3.13847 0.466415 -1.7254
thorax 7.05321 0.548395 -4.89683
lowerneck -2.73802 -9.01524 -3.92595
upperneck 22.0293 -13.4236 18.8639
head 8.91472 -3.99029 6.09446
rclavicle -5.36719e-015 1.90833e-014
rhumerus -32.5715 39.6636 -96.3647
rradius 46.7963
rwrist -0.197092
rhand -3.82016 -6.59692
rfingers 7.12502
rthumb 21.9266 -35.3743
lclavicle -5.36719e-015 1.90833e-014
lhumerus -23.2927 -21.8083 80.5728
lradius 33.8403
lwrist 12.8633
lhand -11.7841 -8.93042
lfingers 7.12502
lthumb 14.2651 20.5596
rfemur -9.83127 10.8953 23.3889
rtibia 27.0183
rfoot -17.299 -2.95535
rtoes -5.61505
lfemur -9.93448 0.88076 -8.17516
ltibia 22.8557
lfoot -14.5003 0.00298291
ltoes -9.10698
1204
root 4.89713 17.8712 -26.2502 182.694 2.06064 -174.453
lowerback -6.79935 0.609441 5.61269
upperback 3.00059 0.414063 -1.74858
thorax 7.04612 0.519165 -4.95615
lowerneck -2.81417 -8.96221 -3.99104
upperneck 21.8908 -13.3481 18.6946
head 8.86027 -4.00364 6.03902
rclavicle 5.56597e-015 3.97569e-015
rhumerus -32.9204 40.0286 -96.6339
rradius 46.835
rwrist -0.203541
rhand -3.30869 -6.54089
rfingers 7.12502
rthumb 22.4177 -35.26
lclavicle 5.56597e-015 3.97569e-015
lhumerus -23.2753 -21.7408 80.7264
lradius 33.8979
lwrist 12.8331
lhand -11.8271 -8.97921
lfingers 7.12502
lthumb 14.2236 20.5138
rfemur -9.82048 10.9257 23.2425
rtibia 26.776
rfoot -17.2337 -2.89354
rtoes -5.90367
lfemur -9.86756 0.900617 -8.30978
ltibia 22.6433
lfoot -14.5248 0.181324
ltoes -9.02456
